<svg width="133" height="166" viewBox="0 0 133 166" fill="none" xmlns="http://www.w3.org/2000/svg">
<path fill-rule="evenodd" clip-rule="evenodd" d="M112.483 7H20.4399C15.5854 7 11.6056 10.8501 11.4449 15.7019L9.77838 66H54H61H71H78H123.144L121.478 15.702C121.317 10.8501 117.337 7 112.483 7ZM61 73L61 113.268C61 116.029 63.2386 118.268 66 118.268C68.7614 118.268 71 116.029 71 113.268L71 73H61ZM54 73L54 113.268C54 119.895 59.3726 125.268 66 125.268C72.6274 125.268 78 119.895 78 113.268L78 73H123.376L125.917 149.702C126.086 154.787 122.01 159 116.922 159H16.0002C10.9128 159 6.83666 154.787 7.00512 149.702L9.54645 73H54ZM20.4399 0C11.8096 0 4.73451 6.84457 4.44872 15.4701L0.00896338 149.47C-0.29053 158.509 6.95597 166 16.0002 166H116.922C125.967 166 133.213 158.509 132.914 149.47L128.474 15.4702C128.188 6.84459 121.113 0 112.483 0H20.4399ZM60.2334 36.7018C59.3045 35.773 57.781 35.7272 57.0211 36.7987C55.7482 38.5936 55 40.7868 55 43.1547C55 49.2298 59.9249 54.1547 66 54.1547C72.0751 54.1547 77 49.2298 77 43.1547C77 40.9952 76.3777 38.9811 75.3027 37.2818C74.5676 36.1199 72.9625 36.1333 71.9903 37.1055C71.0108 38.0851 71.0821 39.6753 71.5879 40.9649C71.8539 41.6433 72 42.382 72 43.1547C72 46.4684 69.3137 49.1547 66 49.1547C62.6863 49.1547 60 46.4684 60 43.1547C60 42.2766 60.1886 41.4425 60.5276 40.6908C61.1168 39.3844 61.2468 37.7152 60.2334 36.7018ZM68.5 33C68.5 31.6193 67.3807 30.5 66 30.5C64.6193 30.5 63.5 31.6193 63.5 33V41C63.5 42.3807 64.6193 43.5 66 43.5C67.3807 43.5 68.5 42.3807 68.5 41V33Z" fill="black"/>
</svg>
