<svg width="522" height="648" viewBox="0 0 522 648" fill="none" xmlns="http://www.w3.org/2000/svg">
<path d="M239.09 144.494L239.091 144.494C244.323 149.722 243.269 157.735 240.833 163.134C239.704 165.634 239.075 168.409 239.075 171.34C239.075 182.376 248.03 191.328 259.083 191.328C270.135 191.328 279.09 182.376 279.09 171.34C279.09 168.76 278.603 166.302 277.717 164.046M239.09 144.494L280.51 162.95M239.09 144.494C234.547 139.955 226.45 139.272 222.206 145.251C216.977 152.619 213.902 161.625 213.902 171.34C213.902 196.275 234.133 216.484 259.083 216.484C284.033 216.484 304.263 196.275 304.263 171.34C304.263 162.481 301.706 154.21 297.289 147.234L294.755 148.839M239.09 144.494L294.755 148.839M277.717 164.046L280.51 162.95M277.717 164.046C277.717 164.046 277.717 164.046 277.717 164.046L280.51 162.95M277.717 164.046C275.622 158.709 274.898 151.072 279.932 146.041L282.053 148.163M280.51 162.95C278.57 158.009 278.297 151.916 282.053 148.163M282.053 148.163L279.933 146.041C284.658 141.32 293.185 140.753 297.289 147.234L294.755 148.839M282.053 148.163L294.755 148.839M485.841 579.656L488.84 579.557L485.841 579.657C486.433 597.441 472.165 612.181 454.348 612.181H67.3541C49.5393 612.181 35.2704 597.441 35.8601 579.656L45.5088 288.687H210.068V439.967C210.068 467.016 232.015 488.942 259.083 488.942C286.151 488.942 308.098 467.016 308.098 439.967V288.687H476.194L485.841 579.656ZM84.3785 35.8193H437.326C454.323 35.8193 468.256 49.2892 468.82 66.2589L475.105 255.867H305.098H278.256H239.91H213.068H46.5972L52.8848 66.2585C53.4473 49.2893 67.3794 35.8193 84.3785 35.8193ZM242.91 439.967V288.687H275.256V439.967C275.256 448.886 268.017 456.123 259.083 456.123C250.148 456.123 242.91 448.886 242.91 439.967ZM84.3785 3C49.6691 3 21.2102 30.5048 20.0606 65.1716L3.03601 578.569C1.83129 614.897 30.9799 645 67.3541 645H454.348C490.725 645 519.871 614.897 518.669 578.569L501.643 65.1719C500.493 30.5049 472.034 3 437.326 3H84.3785ZM271.669 132.434C271.669 125.485 266.032 119.855 259.083 119.855C252.134 119.855 246.496 125.485 246.496 132.434V163.084C246.496 170.034 252.134 175.663 259.083 175.663C266.032 175.663 271.669 170.034 271.669 163.084V132.434Z" fill="#5A5A5A" stroke="#5A5A5A" stroke-width="6"/>
</svg>
