<svg width="237" height="298" viewBox="0 0 237 298" fill="none" xmlns="http://www.w3.org/2000/svg">
<mask id="path-1-outside-1_36_66" maskUnits="userSpaceOnUse" x="0" y="0" width="237" height="298" fill="#5A5A5A">
<rect fill="white" width="237" height="298"/>
<path fill-rule="evenodd" clip-rule="evenodd" d="M123.244 62.1472C120.622 62.1472 118.496 60.0218 118.496 57.3987C118.496 52.734 116.808 50.6237 114.473 47.7045L114.471 47.703L114.47 47.7016C111.75 44.3007 108.365 40.0696 108.365 32.0736C108.365 24.0779 111.75 19.8462 114.47 16.446L114.471 16.4442L114.473 16.4426C116.808 13.5235 118.496 11.4132 118.496 6.74846C118.496 4.12541 120.622 2 123.244 2C125.866 2 127.992 4.12541 127.992 6.74846C127.992 14.7441 124.608 18.9758 121.888 22.3761L121.887 22.3779L121.885 22.3794C119.55 25.2986 117.862 27.4089 117.862 32.0736C117.862 36.7391 119.55 38.8493 121.887 41.7693L121.888 41.7707C124.608 45.1716 127.992 49.4027 127.992 57.3987C127.992 60.0218 125.866 62.1472 123.244 62.1472ZM229.61 72.9104H6.74846C4.12604 72.9104 2 75.0358 2 77.6589C2 80.2819 4.12604 82.4073 6.74846 82.4073H12.13V87.7889C12.13 91.513 14.2156 94.759 17.2793 96.421C18.8463 132.735 44.2113 163.643 79.7089 176.852L53.7829 245.987C51.7044 245.426 49.522 245.121 47.2687 245.121C33.4791 245.121 22.2601 256.34 22.2601 270.13C22.2601 283.919 33.4791 295.138 47.2687 295.138C59.4348 295.138 69.594 286.404 71.8195 274.878H183.266L189.709 292.058C190.423 293.964 192.233 295.14 194.155 295.14C194.709 295.14 195.272 295.042 195.821 294.836C198.277 293.916 199.521 291.179 198.6 288.723L156.648 176.851C192.145 163.643 217.51 132.735 219.077 96.4216C222.142 94.7597 224.227 91.5136 224.227 87.7889V82.4073H229.609C232.231 82.4073 234.357 80.2819 234.357 77.6589C234.357 75.0358 232.232 72.9104 229.61 72.9104ZM47.2687 285.641C38.7157 285.641 31.757 278.683 31.757 270.13C31.757 261.576 38.7157 254.618 47.2687 254.618C55.8216 254.618 62.7803 261.576 62.7803 270.13C62.7803 278.683 55.8216 285.641 47.2687 285.641ZM179.704 265.381H71.8195C70.6292 259.217 67.1717 253.853 62.3485 250.195L88.7575 179.771C98.0702 182.328 107.948 183.708 118.178 183.708C128.409 183.708 138.287 182.328 147.6 179.771L179.704 265.381ZM153.317 167.967L153.015 167.162C152.094 164.707 149.357 163.462 146.901 164.383C144.446 165.304 143.201 168.041 144.123 170.497L144.251 170.839C135.984 173.029 127.234 174.211 118.178 174.211C109.123 174.211 100.373 173.029 92.1062 170.839L92.2347 170.496C93.1559 168.04 91.9112 165.303 89.4559 164.383C87.0006 163.462 84.263 164.706 83.3424 167.162L83.0404 167.967C51.5435 156.272 28.9162 129.351 26.8515 97.6024H209.506C207.441 129.35 184.814 156.271 153.317 167.967ZM214.731 87.7889C214.731 87.963 214.589 88.1055 214.414 88.1055H21.9435C21.7688 88.1055 21.627 87.963 21.627 87.7889V82.4073H214.731V87.7889ZM47.2687 265.381C46.0215 265.381 44.7932 265.888 43.9131 266.774C43.0268 267.654 42.5203 268.882 42.5203 270.13C42.5203 271.377 43.0268 272.605 43.9131 273.485C44.7932 274.372 46.0215 274.878 47.2687 274.878C48.5223 274.878 49.7443 274.372 50.6243 273.485C51.5107 272.605 52.0172 271.383 52.0172 270.13C52.0172 268.876 51.5107 267.654 50.6243 266.774C49.7443 265.888 48.5223 265.381 47.2687 265.381ZM93.1703 57.3987C93.1703 60.0217 95.2964 62.1471 97.9188 62.1471C100.541 62.1471 102.667 60.0217 102.667 57.3987C102.667 49.4027 99.2828 45.1716 96.5624 41.7706L96.5614 41.7693C94.2251 38.8493 92.5372 36.7391 92.5372 32.0735C92.5372 28.623 93.4483 26.6116 94.8171 24.6533C96.3195 22.5038 95.7946 19.5439 93.6452 18.0415C91.4951 16.5398 88.5352 17.064 87.0328 19.2141C85.1739 21.8732 83.0403 25.7391 83.0403 32.0742C83.0403 40.0702 86.4247 44.3013 89.1451 47.7022L89.1462 47.7036L89.1467 47.7043C91.482 50.6233 93.1703 52.7335 93.1703 57.3987ZM148.569 62.1471C145.947 62.1471 143.821 60.0217 143.821 57.3987C143.821 52.7335 142.132 50.6233 139.797 47.7042L139.797 47.7036L139.795 47.7022C137.075 44.3013 133.691 40.0702 133.691 32.0742C133.691 25.7391 135.824 21.8732 137.683 19.2141C139.186 17.064 142.145 16.5398 144.296 18.0415C146.445 19.5439 146.97 22.5038 145.467 24.6533C144.099 26.6116 143.188 28.623 143.188 32.0735C143.188 36.7391 144.876 38.8493 147.212 41.7693L147.213 41.7706C149.933 45.1716 153.318 49.4027 153.318 57.3987C153.318 60.0217 151.192 62.1471 148.569 62.1471ZM128.301 162.866C128.483 162.866 128.668 162.855 128.854 162.834C147.244 160.701 164.392 152.962 177.138 141.043C179.053 139.252 179.154 136.247 177.363 134.331C175.571 132.416 172.566 132.315 170.651 134.107C159.378 144.648 144.146 151.5 127.759 153.4C125.154 153.703 123.287 156.058 123.589 158.664C123.871 161.083 125.923 162.866 128.301 162.866ZM185.563 127.993C184.728 127.993 183.883 127.773 183.116 127.311C180.87 125.957 180.147 123.039 181.501 120.792C183.307 117.797 184.83 114.654 186.028 111.451C186.946 108.995 189.683 107.749 192.139 108.667C194.595 109.585 195.842 112.321 194.923 114.777C193.521 118.527 191.742 122.2 189.635 125.695C188.742 127.174 187.172 127.993 185.563 127.993Z"/>
</mask>
<path fill-rule="evenodd" clip-rule="evenodd" d="M123.244 62.1472C120.622 62.1472 118.496 60.0218 118.496 57.3987C118.496 52.734 116.808 50.6237 114.473 47.7045L114.471 47.703L114.47 47.7016C111.75 44.3007 108.365 40.0696 108.365 32.0736C108.365 24.0779 111.75 19.8462 114.47 16.446L114.471 16.4442L114.473 16.4426C116.808 13.5235 118.496 11.4132 118.496 6.74846C118.496 4.12541 120.622 2 123.244 2C125.866 2 127.992 4.12541 127.992 6.74846C127.992 14.7441 124.608 18.9758 121.888 22.3761L121.887 22.3779L121.885 22.3794C119.55 25.2986 117.862 27.4089 117.862 32.0736C117.862 36.7391 119.55 38.8493 121.887 41.7693L121.888 41.7707C124.608 45.1716 127.992 49.4027 127.992 57.3987C127.992 60.0218 125.866 62.1472 123.244 62.1472ZM229.61 72.9104H6.74846C4.12604 72.9104 2 75.0358 2 77.6589C2 80.2819 4.12604 82.4073 6.74846 82.4073H12.13V87.7889C12.13 91.513 14.2156 94.759 17.2793 96.421C18.8463 132.735 44.2113 163.643 79.7089 176.852L53.7829 245.987C51.7044 245.426 49.522 245.121 47.2687 245.121C33.4791 245.121 22.2601 256.34 22.2601 270.13C22.2601 283.919 33.4791 295.138 47.2687 295.138C59.4348 295.138 69.594 286.404 71.8195 274.878H183.266L189.709 292.058C190.423 293.964 192.233 295.14 194.155 295.14C194.709 295.14 195.272 295.042 195.821 294.836C198.277 293.916 199.521 291.179 198.6 288.723L156.648 176.851C192.145 163.643 217.51 132.735 219.077 96.4216C222.142 94.7597 224.227 91.5136 224.227 87.7889V82.4073H229.609C232.231 82.4073 234.357 80.2819 234.357 77.6589C234.357 75.0358 232.232 72.9104 229.61 72.9104ZM47.2687 285.641C38.7157 285.641 31.757 278.683 31.757 270.13C31.757 261.576 38.7157 254.618 47.2687 254.618C55.8216 254.618 62.7803 261.576 62.7803 270.13C62.7803 278.683 55.8216 285.641 47.2687 285.641ZM179.704 265.381H71.8195C70.6292 259.217 67.1717 253.853 62.3485 250.195L88.7575 179.771C98.0702 182.328 107.948 183.708 118.178 183.708C128.409 183.708 138.287 182.328 147.6 179.771L179.704 265.381ZM153.317 167.967L153.015 167.162C152.094 164.707 149.357 163.462 146.901 164.383C144.446 165.304 143.201 168.041 144.123 170.497L144.251 170.839C135.984 173.029 127.234 174.211 118.178 174.211C109.123 174.211 100.373 173.029 92.1062 170.839L92.2347 170.496C93.1559 168.04 91.9112 165.303 89.4559 164.383C87.0006 163.462 84.263 164.706 83.3424 167.162L83.0404 167.967C51.5435 156.272 28.9162 129.351 26.8515 97.6024H209.506C207.441 129.35 184.814 156.271 153.317 167.967ZM214.731 87.7889C214.731 87.963 214.589 88.1055 214.414 88.1055H21.9435C21.7688 88.1055 21.627 87.963 21.627 87.7889V82.4073H214.731V87.7889ZM47.2687 265.381C46.0215 265.381 44.7932 265.888 43.9131 266.774C43.0268 267.654 42.5203 268.882 42.5203 270.13C42.5203 271.377 43.0268 272.605 43.9131 273.485C44.7932 274.372 46.0215 274.878 47.2687 274.878C48.5223 274.878 49.7443 274.372 50.6243 273.485C51.5107 272.605 52.0172 271.383 52.0172 270.13C52.0172 268.876 51.5107 267.654 50.6243 266.774C49.7443 265.888 48.5223 265.381 47.2687 265.381ZM93.1703 57.3987C93.1703 60.0217 95.2964 62.1471 97.9188 62.1471C100.541 62.1471 102.667 60.0217 102.667 57.3987C102.667 49.4027 99.2828 45.1716 96.5624 41.7706L96.5614 41.7693C94.2251 38.8493 92.5372 36.7391 92.5372 32.0735C92.5372 28.623 93.4483 26.6116 94.8171 24.6533C96.3195 22.5038 95.7946 19.5439 93.6452 18.0415C91.4951 16.5398 88.5352 17.064 87.0328 19.2141C85.1739 21.8732 83.0403 25.7391 83.0403 32.0742C83.0403 40.0702 86.4247 44.3013 89.1451 47.7022L89.1462 47.7036L89.1467 47.7043C91.482 50.6233 93.1703 52.7335 93.1703 57.3987ZM148.569 62.1471C145.947 62.1471 143.821 60.0217 143.821 57.3987C143.821 52.7335 142.132 50.6233 139.797 47.7042L139.797 47.7036L139.795 47.7022C137.075 44.3013 133.691 40.0702 133.691 32.0742C133.691 25.7391 135.824 21.8732 137.683 19.2141C139.186 17.064 142.145 16.5398 144.296 18.0415C146.445 19.5439 146.97 22.5038 145.467 24.6533C144.099 26.6116 143.188 28.623 143.188 32.0735C143.188 36.7391 144.876 38.8493 147.212 41.7693L147.213 41.7706C149.933 45.1716 153.318 49.4027 153.318 57.3987C153.318 60.0217 151.192 62.1471 148.569 62.1471ZM128.301 162.866C128.483 162.866 128.668 162.855 128.854 162.834C147.244 160.701 164.392 152.962 177.138 141.043C179.053 139.252 179.154 136.247 177.363 134.331C175.571 132.416 172.566 132.315 170.651 134.107C159.378 144.648 144.146 151.5 127.759 153.4C125.154 153.703 123.287 156.058 123.589 158.664C123.871 161.083 125.923 162.866 128.301 162.866ZM185.563 127.993C184.728 127.993 183.883 127.773 183.116 127.311C180.87 125.957 180.147 123.039 181.501 120.792C183.307 117.797 184.83 114.654 186.028 111.451C186.946 108.995 189.683 107.749 192.139 108.667C194.595 109.585 195.842 112.321 194.923 114.777C193.521 118.527 191.742 122.2 189.635 125.695C188.742 127.174 187.172 127.993 185.563 127.993Z" fill="#5A5A5A"/>
<path d="M114.473 47.7045L116.034 46.4553L116.034 46.4551L114.473 47.7045ZM114.471 47.703L116.033 46.4536L116.031 46.4503L114.471 47.703ZM114.47 47.7016L112.908 48.9509L112.911 48.9543L114.47 47.7016ZM114.47 16.446L116.032 17.6952L116.037 17.6892L114.47 16.446ZM114.471 16.4442L112.911 15.1934L112.905 15.2009L114.471 16.4442ZM114.473 16.4426L116.033 17.6934L116.034 17.6919L114.473 16.4426ZM121.888 22.3761L123.45 23.6255L123.45 23.6253L121.888 22.3761ZM121.887 22.3779L123.444 23.6328L123.448 23.6273L121.887 22.3779ZM121.885 22.3794L120.328 21.1245L120.323 21.1302L121.885 22.3794ZM121.887 41.7693L123.451 40.5231L123.448 40.5198L121.887 41.7693ZM121.888 41.7707L120.323 43.0168L120.326 43.0199L121.888 41.7707ZM12.13 82.4073H14.13V80.4073H12.13V82.4073ZM17.2793 96.421L19.2774 96.3348L19.2286 95.2031L18.2329 94.663L17.2793 96.421ZM79.7089 176.852L81.5815 177.554L82.2856 175.676L80.4063 174.977L79.7089 176.852ZM53.7829 245.987L53.2613 247.918L55.017 248.392L55.6556 246.69L53.7829 245.987ZM71.8195 274.878V272.878H70.1687L69.8557 274.499L71.8195 274.878ZM183.266 274.878L185.139 274.176L184.652 272.878H183.266V274.878ZM189.709 292.058L191.581 291.355L191.581 291.355L189.709 292.058ZM195.821 294.836L196.523 296.709L196.524 296.709L195.821 294.836ZM198.6 288.723L196.728 289.425L196.728 289.425L198.6 288.723ZM156.648 176.851L155.951 174.977L154.072 175.676L154.776 177.553L156.648 176.851ZM219.077 96.4216L218.123 94.6635L217.128 95.2035L217.079 96.3354L219.077 96.4216ZM224.227 82.4073V80.4073H222.227V82.4073H224.227ZM71.8195 265.381L69.8557 265.761L70.1687 267.381H71.8195V265.381ZM179.704 265.381V267.381H182.591L181.577 264.679L179.704 265.381ZM62.3485 250.195L60.4758 249.493L59.9526 250.888L61.14 251.789L62.3485 250.195ZM88.7575 179.771L89.287 177.842L87.5261 177.359L86.8849 179.069L88.7575 179.771ZM147.6 179.771L149.473 179.069L148.832 177.359L147.071 177.842L147.6 179.771ZM153.015 167.162L151.142 167.864L151.143 167.865L153.015 167.162ZM153.317 167.967L151.445 168.67L152.145 170.536L154.013 169.842L153.317 167.967ZM146.901 164.383L147.604 166.256L147.604 166.256L146.901 164.383ZM144.123 170.497L142.25 171.199L142.25 171.2L144.123 170.497ZM144.251 170.839L144.763 172.773L146.9 172.207L146.124 170.137L144.251 170.839ZM92.1062 170.839L90.2332 170.138L89.4582 172.207L91.5941 172.773L92.1062 170.839ZM92.2347 170.496L90.3621 169.794L90.3618 169.795L92.2347 170.496ZM89.4559 164.383L88.7533 166.255L88.7537 166.256L89.4559 164.383ZM83.3424 167.162L85.2151 167.864L85.2151 167.864L83.3424 167.162ZM83.0404 167.967L82.3442 169.842L84.2131 170.536L84.9131 168.669L83.0404 167.967ZM26.8515 97.6024V95.6024H24.7173L24.8558 97.7322L26.8515 97.6024ZM209.506 97.6024L211.502 97.7322L211.64 95.6024H209.506V97.6024ZM21.627 82.4073V80.4073H19.627V82.4073H21.627ZM214.731 82.4073H216.731V80.4073H214.731V82.4073ZM43.9131 266.774L45.3223 268.193L45.3274 268.188L45.3324 268.183L43.9131 266.774ZM43.9131 273.485L45.3324 272.076L45.3274 272.071L45.3223 272.066L43.9131 273.485ZM50.6243 273.485L49.2152 272.066L49.2101 272.071L49.205 272.076L50.6243 273.485ZM50.6243 266.774L49.205 268.183L49.2101 268.188L49.2152 268.193L50.6243 266.774ZM96.5624 41.7706L94.9981 43.0168L95.0006 43.0199L96.5624 41.7706ZM96.5614 41.7693L98.1257 40.5231L98.123 40.5198L96.5614 41.7693ZM94.8171 24.6533L96.4563 25.7991L96.4563 25.7991L94.8171 24.6533ZM93.6452 18.0415L94.791 16.4023L94.7904 16.4019L93.6452 18.0415ZM87.0328 19.2141L88.672 20.36L88.6722 20.3596L87.0328 19.2141ZM89.1451 47.7022L90.7094 46.4561L90.7069 46.4529L89.1451 47.7022ZM89.1462 47.7036L87.5819 48.9497L87.5883 48.9578L87.5947 48.9658L89.1462 47.7036ZM89.1467 47.7043L90.7084 46.4548L90.7033 46.4484L90.6981 46.4421L89.1467 47.7043ZM139.797 47.7042L141.359 46.4548L141.348 46.4419L141.338 46.4291L139.797 47.7042ZM139.797 47.7036L138.24 48.9593L138.248 48.9691L138.256 48.9787L139.797 47.7036ZM139.795 47.7022L138.234 48.9515L138.239 48.958L139.795 47.7022ZM137.683 19.2141L139.322 20.36L139.323 20.3596L137.683 19.2141ZM144.296 18.0415L145.441 16.4023L145.441 16.4019L144.296 18.0415ZM145.467 24.6533L147.107 25.7991L147.107 25.7991L145.467 24.6533ZM147.212 41.7693L145.65 43.0187L145.655 43.0251L145.66 43.0314L147.212 41.7693ZM147.213 41.7706L148.775 40.5213L148.77 40.5149L148.764 40.5084L147.213 41.7706ZM128.854 162.834L128.623 160.847L128.623 160.847L128.854 162.834ZM177.138 141.043L178.504 142.504L178.504 142.504L177.138 141.043ZM177.363 134.331L178.823 132.965L178.823 132.965L177.363 134.331ZM170.651 134.107L172.017 135.568L172.017 135.568L170.651 134.107ZM127.759 153.4L127.529 151.413L127.528 151.413L127.759 153.4ZM123.589 158.664L121.602 158.894L121.603 158.895L123.589 158.664ZM183.116 127.311L184.148 125.598L184.148 125.598L183.116 127.311ZM181.501 120.792L183.214 121.825L183.214 121.825L181.501 120.792ZM186.028 111.451L184.154 110.75L184.154 110.75L186.028 111.451ZM192.139 108.667L191.438 110.54L191.438 110.54L192.139 108.667ZM194.923 114.777L193.05 114.077L193.05 114.077L194.923 114.777ZM189.635 125.695L191.347 126.728L191.347 126.728L189.635 125.695ZM116.496 57.3987C116.496 61.1265 119.517 64.1472 123.244 64.1472V60.1472C121.726 60.1472 120.496 58.917 120.496 57.3987H116.496ZM112.911 48.9538C114.106 50.4482 114.961 51.5306 115.559 52.7681C116.128 53.9431 116.496 55.3341 116.496 57.3987H120.496C120.496 54.7986 120.019 52.8021 119.16 51.026C118.331 49.3124 117.174 47.88 116.034 46.4553L112.911 48.9538ZM112.91 48.9524L112.911 48.9539L116.034 46.4551L116.033 46.4536L112.91 48.9524ZM112.911 48.9543L112.912 48.9556L116.031 46.4503L116.029 46.449L112.911 48.9543ZM106.365 32.0736C106.365 40.7821 110.125 45.4711 112.908 48.9509L116.032 46.4524C113.375 43.1303 110.365 39.357 110.365 32.0736H106.365ZM112.908 15.1967C110.125 18.6758 106.365 23.3654 106.365 32.0736H110.365C110.365 24.7905 113.375 21.0166 116.032 17.6952L112.908 15.1967ZM112.905 15.2009L112.903 15.2027L116.037 17.6892L116.038 17.6874L112.905 15.2009ZM112.912 15.1918L112.911 15.1934L116.032 17.695L116.033 17.6934L112.912 15.1918ZM116.496 6.74846C116.496 8.81307 116.128 10.2041 115.559 11.3791C114.961 12.6166 114.106 13.6989 112.911 15.1934L116.034 17.6919C117.174 16.2671 118.331 14.8348 119.16 13.1211C120.019 11.345 120.496 9.34855 120.496 6.74846H116.496ZM123.244 0C119.517 0 116.496 3.02067 116.496 6.74846H120.496C120.496 5.23015 121.726 4 123.244 4V0ZM129.992 6.74846C129.992 3.02067 126.971 0 123.244 0V4C124.762 4 125.992 5.23015 125.992 6.74846H129.992ZM123.45 23.6253C126.233 20.1462 129.992 15.4566 129.992 6.74846H125.992C125.992 14.0315 122.983 17.8054 120.326 21.1268L123.45 23.6253ZM123.448 23.6273L123.45 23.6255L120.326 21.1267L120.325 21.1285L123.448 23.6273ZM123.443 23.6344L123.444 23.6328L120.329 21.1229L120.328 21.1245L123.443 23.6344ZM119.862 32.0736C119.862 30.009 120.23 28.618 120.799 27.4429C121.397 26.2055 122.252 25.1231 123.447 23.6287L120.323 21.1302C119.184 22.5549 118.027 23.9873 117.198 25.7009C116.339 27.477 115.862 29.4735 115.862 32.0736H119.862ZM123.448 40.5198C122.252 39.0251 121.398 37.9425 120.799 36.705C120.23 35.5298 119.862 34.1387 119.862 32.0736H115.862C115.862 34.674 116.339 36.6707 117.198 38.4471C118.027 40.161 119.185 41.5936 120.325 43.0188L123.448 40.5198ZM123.452 40.5245L123.451 40.5231L120.322 43.0155L120.323 43.0168L123.452 40.5245ZM129.992 57.3987C129.992 48.6902 126.233 44.0012 123.449 40.5214L120.326 43.0199C122.983 46.342 125.992 50.1153 125.992 57.3987H129.992ZM123.244 64.1472C126.971 64.1472 129.992 61.1265 129.992 57.3987H125.992C125.992 58.917 124.762 60.1472 123.244 60.1472V64.1472ZM6.74846 74.9104H229.61V70.9104H6.74846V74.9104ZM4 77.6589C4 76.1406 5.23044 74.9104 6.74846 74.9104V70.9104C3.02165 70.9104 0 73.9311 0 77.6589H4ZM6.74846 80.4073C5.23044 80.4073 4 79.1772 4 77.6589H0C0 81.3867 3.02165 84.4073 6.74846 84.4073V80.4073ZM12.13 80.4073H6.74846V84.4073H12.13V80.4073ZM14.13 87.7889V82.4073H10.13V87.7889H14.13ZM18.2329 94.663C15.786 93.3356 14.13 90.7481 14.13 87.7889H10.13C10.13 92.2779 12.6452 96.1825 16.3256 98.179L18.2329 94.663ZM80.4063 174.977C45.5424 162.005 20.8045 131.725 19.2774 96.3348L15.2811 96.5072C16.888 133.745 42.8801 165.282 79.0114 178.726L80.4063 174.977ZM55.6556 246.69L81.5815 177.554L77.8362 176.149L51.9103 245.285L55.6556 246.69ZM47.2687 247.121C49.3408 247.121 51.3479 247.401 53.2613 247.918L54.3046 244.057C52.0608 243.45 49.7031 243.121 47.2687 243.121V247.121ZM24.2601 270.13C24.2601 257.445 34.5837 247.121 47.2687 247.121V243.121C32.3746 243.121 20.2601 255.236 20.2601 270.13H24.2601ZM47.2687 293.138C34.5837 293.138 24.2601 282.815 24.2601 270.13H20.2601C20.2601 285.024 32.3746 297.138 47.2687 297.138V293.138ZM69.8557 274.499C67.8081 285.104 58.4562 293.138 47.2687 293.138V297.138C60.4135 297.138 71.3799 287.704 73.7832 275.257L69.8557 274.499ZM183.266 272.878H71.8195V276.878H183.266V272.878ZM191.581 291.355L185.139 274.176L181.394 275.58L187.836 292.76L191.581 291.355ZM194.155 293.14C193.039 293.14 191.994 292.456 191.581 291.355L187.836 292.76C188.853 295.472 191.427 297.14 194.155 297.14V293.14ZM195.119 292.964C194.799 293.084 194.473 293.14 194.155 293.14V297.14C194.945 297.14 195.746 297 196.523 296.709L195.119 292.964ZM196.728 289.425C197.261 290.847 196.54 292.431 195.119 292.964L196.524 296.709C200.013 295.401 201.782 291.511 200.473 288.02L196.728 289.425ZM154.776 177.553L196.728 289.425L200.473 288.021L158.521 176.149L154.776 177.553ZM217.079 96.3354C215.552 131.725 190.814 162.004 155.951 174.977L157.346 178.725C193.477 165.281 219.468 133.745 221.075 96.5078L217.079 96.3354ZM222.227 87.7889C222.227 90.7487 220.571 93.3361 218.123 94.6635L220.03 98.1798C223.712 96.1833 226.227 92.2785 226.227 87.7889H222.227ZM222.227 82.4073V87.7889H226.227V82.4073H222.227ZM229.609 80.4073H224.227V84.4073H229.609V80.4073ZM232.357 77.6589C232.357 79.1772 231.127 80.4073 229.609 80.4073V84.4073C233.336 84.4073 236.357 81.3867 236.357 77.6589H232.357ZM229.61 74.9104C231.127 74.9104 232.357 76.1402 232.357 77.6589H236.357C236.357 73.9314 233.337 70.9104 229.61 70.9104V74.9104ZM29.757 270.13C29.757 279.788 37.6112 287.641 47.2687 287.641V283.641C39.8202 283.641 33.757 277.579 33.757 270.13H29.757ZM47.2687 252.618C37.6112 252.618 29.757 260.472 29.757 270.13H33.757C33.757 262.681 39.8202 256.618 47.2687 256.618V252.618ZM64.7803 270.13C64.7803 260.472 56.9261 252.618 47.2687 252.618V256.618C54.7171 256.618 60.7803 262.681 60.7803 270.13H64.7803ZM47.2687 287.641C56.9261 287.641 64.7803 279.788 64.7803 270.13H60.7803C60.7803 277.579 54.7171 283.641 47.2687 283.641V287.641ZM71.8195 267.381H179.704V263.381H71.8195V267.381ZM61.14 251.789C65.5822 255.157 68.7617 260.095 69.8557 265.761L73.7832 265.002C72.4967 258.34 68.7611 252.548 63.557 248.602L61.14 251.789ZM86.8849 179.069L60.4758 249.493L64.2212 250.897L90.6302 180.473L86.8849 179.069ZM118.178 181.708C108.129 181.708 98.4286 180.352 89.287 177.842L88.2281 181.7C97.7118 184.303 107.768 185.708 118.178 185.708V181.708ZM147.071 177.842C137.929 180.352 128.229 181.708 118.178 181.708V185.708C128.589 185.708 138.646 184.303 148.13 181.7L147.071 177.842ZM181.577 264.679L149.473 179.069L145.728 180.473L177.832 266.084L181.577 264.679ZM151.143 167.865L151.445 168.67L155.189 167.264L154.887 166.46L151.143 167.865ZM147.604 166.256C149.025 165.723 150.609 166.443 151.142 167.864L154.888 166.46C153.579 162.971 149.689 161.202 146.199 162.511L147.604 166.256ZM145.995 169.795C145.462 168.373 146.182 166.789 147.604 166.256L146.199 162.511C142.71 163.819 140.941 167.709 142.25 171.199L145.995 169.795ZM146.124 170.137L145.995 169.794L142.25 171.2L142.379 171.542L146.124 170.137ZM118.178 176.211C127.408 176.211 136.331 175.006 144.763 172.773L143.739 168.906C135.638 171.052 127.06 172.211 118.178 172.211V176.211ZM91.5941 172.773C100.026 175.006 108.948 176.211 118.178 176.211V172.211C109.297 172.211 100.719 171.052 92.6182 168.906L91.5941 172.773ZM90.3618 169.795L90.2332 170.138L93.9791 171.541L94.1076 171.198L90.3618 169.795ZM88.7537 166.256C90.1749 166.788 90.8952 168.373 90.3621 169.794L94.1073 171.199C95.4165 167.708 93.6474 163.818 90.158 162.51L88.7537 166.256ZM85.2151 167.864C85.7479 166.443 87.3327 165.722 88.7533 166.255L90.1584 162.51C86.6685 161.201 82.778 162.97 81.4697 166.46L85.2151 167.864ZM84.9131 168.669L85.2151 167.864L81.4697 166.459L81.1677 167.265L84.9131 168.669ZM24.8558 97.7322C26.9797 130.393 50.2333 157.919 82.3442 169.842L83.7366 166.092C52.8538 154.625 30.8526 128.308 28.8473 97.4726L24.8558 97.7322ZM209.506 95.6024H26.8515V99.6024H209.506V95.6024ZM154.013 169.842C186.124 157.918 209.377 130.392 211.502 97.7322L207.51 97.4726C205.504 128.308 183.504 154.624 152.621 166.092L154.013 169.842ZM214.414 90.1055C215.696 90.1055 216.731 89.065 216.731 87.7889H212.731C212.731 86.861 213.482 86.1055 214.414 86.1055V90.1055ZM21.9435 90.1055H214.414V86.1055H21.9435V90.1055ZM19.627 87.7889C19.627 89.065 20.6616 90.1055 21.9435 90.1055V86.1055C22.876 86.1055 23.627 86.8611 23.627 87.7889H19.627ZM19.627 82.4073V87.7889H23.627V82.4073H19.627ZM214.731 80.4073H21.627V84.4073H214.731V80.4073ZM216.731 87.7889V82.4073H212.731V87.7889H216.731ZM45.3324 268.183C45.8336 267.678 46.5496 267.381 47.2687 267.381V263.381C45.4934 263.381 43.7528 264.097 42.4939 265.365L45.3324 268.183ZM44.5203 270.13C44.5203 269.41 44.8174 268.695 45.3223 268.193L42.504 265.355C41.2362 266.614 40.5203 268.354 40.5203 270.13H44.5203ZM45.3223 272.066C44.8175 271.565 44.5203 270.849 44.5203 270.13H40.5203C40.5203 271.905 41.2361 273.646 42.504 274.905L45.3223 272.066ZM47.2687 272.878C46.5496 272.878 45.8336 272.581 45.3324 272.076L42.4939 274.894C43.7528 276.162 45.4934 276.878 47.2687 276.878V272.878ZM49.205 272.076C48.7028 272.582 47.9928 272.878 47.2687 272.878V276.878C49.0518 276.878 50.7857 276.161 52.0436 274.894L49.205 272.076ZM50.0172 270.13C50.0172 270.854 49.721 271.564 49.2152 272.066L52.0334 274.905C53.3004 273.647 54.0172 271.913 54.0172 270.13H50.0172ZM49.2152 268.193C49.721 268.696 50.0172 269.406 50.0172 270.13H54.0172C54.0172 268.347 53.3004 266.613 52.0335 265.355L49.2152 268.193ZM47.2687 267.381C47.9928 267.381 48.7028 267.677 49.205 268.183L52.0436 265.365C50.7857 264.098 49.0518 263.381 47.2687 263.381V267.381ZM97.9188 60.1471C96.4008 60.1471 95.1703 58.917 95.1703 57.3987H91.1703C91.1703 61.1265 94.192 64.1471 97.9188 64.1471V60.1471ZM100.667 57.3987C100.667 58.917 99.4368 60.1471 97.9188 60.1471V64.1471C101.646 64.1471 104.667 61.1265 104.667 57.3987H100.667ZM95.0006 43.0199C97.6579 46.342 100.667 50.1153 100.667 57.3987H104.667C104.667 48.6901 100.908 44.0012 98.1243 40.5213L95.0006 43.0199ZM94.997 43.0154L94.9981 43.0168L98.1268 40.5245L98.1257 40.5231L94.997 43.0154ZM90.5372 32.0735C90.5372 34.674 91.0134 36.6707 91.8728 38.4471C92.7021 40.161 93.8594 41.5935 94.9997 43.0187L98.123 40.5198C96.9271 39.025 96.0723 37.9425 95.4735 36.7049C94.905 35.5298 94.5372 34.1386 94.5372 32.0735H90.5372ZM93.1779 23.5075C91.6093 25.7515 90.5372 28.1558 90.5372 32.0735H94.5372C94.5372 29.0902 95.2872 27.4717 96.4563 25.7991L93.1779 23.5075ZM92.4994 19.6808C93.7438 20.5506 94.0473 22.2636 93.1778 23.5075L96.4563 25.7991C98.5918 22.744 97.8455 18.5373 94.791 16.4023L92.4994 19.6808ZM88.6722 20.3596C89.5417 19.1154 91.2547 18.8115 92.4999 19.6812L94.7904 16.4019C91.7354 14.2681 87.5287 15.0126 85.3934 18.0685L88.6722 20.3596ZM85.0403 32.0742C85.0403 26.2683 86.9689 22.7963 88.672 20.36L85.3936 18.0682C83.379 20.9501 81.0403 25.2099 81.0403 32.0742H85.0403ZM90.7069 46.4529C88.0496 43.1309 85.0403 39.3576 85.0403 32.0742H81.0403C81.0403 40.7827 84.7998 45.4717 87.5833 48.9515L90.7069 46.4529ZM90.7105 46.4574L90.7094 46.4561L87.5808 48.9484L87.5819 48.9497L90.7105 46.4574ZM90.6981 46.4421L90.6976 46.4414L87.5947 48.9658L87.5953 48.9664L90.6981 46.4421ZM95.1703 57.3987C95.1703 54.7983 94.694 52.8017 93.8346 51.0255C93.0054 49.3118 91.8482 47.8795 90.7084 46.4548L87.585 48.9537C88.7805 50.448 89.6352 51.5303 90.234 52.7678C90.8025 53.9428 91.1703 55.3339 91.1703 57.3987H95.1703ZM141.821 57.3987C141.821 61.1265 144.842 64.1471 148.569 64.1471V60.1471C147.051 60.1471 145.821 58.917 145.821 57.3987H141.821ZM138.235 48.9537C139.431 50.448 140.286 51.5303 140.884 52.7678C141.453 53.9428 141.821 55.3339 141.821 57.3987H145.821C145.821 54.7983 145.344 52.8017 144.485 51.0255C143.656 49.3118 142.499 47.8795 141.359 46.4548L138.235 48.9537ZM138.256 48.9787L138.256 48.9794L141.338 46.4291L141.337 46.4284L138.256 48.9787ZM138.239 48.958L138.24 48.9593L141.353 46.4478L141.352 46.4465L138.239 48.958ZM131.691 32.0742C131.691 40.7827 135.45 45.4717 138.234 48.9515L141.357 46.4529C138.7 43.1309 135.691 39.3576 135.691 32.0742H131.691ZM136.044 18.0682C134.029 20.9501 131.691 25.2099 131.691 32.0742H135.691C135.691 26.2683 137.619 22.7963 139.322 20.36L136.044 18.0682ZM145.441 16.4019C142.386 14.2681 138.179 15.0126 136.044 18.0685L139.323 20.3596C140.192 19.1153 141.905 18.8115 143.15 19.6812L145.441 16.4019ZM147.107 25.7991C149.242 22.744 148.496 18.5373 145.441 16.4023L143.15 19.6808C144.394 20.5506 144.698 22.2636 143.828 23.5075L147.107 25.7991ZM145.188 32.0735C145.188 29.0902 145.938 27.4717 147.107 25.7991L143.828 23.5075C142.26 25.7515 141.188 28.1558 141.188 32.0735H145.188ZM148.773 40.5198C147.577 39.025 146.723 37.9425 146.124 36.7049C145.555 35.5298 145.188 34.1386 145.188 32.0735H141.188C141.188 34.674 141.664 36.6707 142.523 38.4471C143.352 40.161 144.51 41.5935 145.65 43.0187L148.773 40.5198ZM148.764 40.5084L148.763 40.5071L145.66 43.0314L145.661 43.0328L148.764 40.5084ZM155.318 57.3987C155.318 48.6901 151.558 44.0012 148.775 40.5213L145.651 43.0199C148.308 46.342 151.318 50.1153 151.318 57.3987H155.318ZM148.569 64.1471C152.296 64.1471 155.318 61.1265 155.318 57.3987H151.318C151.318 58.917 150.087 60.1471 148.569 60.1471V64.1471ZM128.623 160.847C128.513 160.86 128.405 160.866 128.301 160.866V164.866C128.562 164.866 128.823 164.85 129.084 164.82L128.623 160.847ZM175.772 139.582C163.358 151.191 146.616 158.761 128.623 160.847L129.084 164.82C147.872 162.642 165.426 154.734 178.504 142.504L175.772 139.582ZM175.902 135.698C176.939 136.806 176.88 138.546 175.772 139.582L178.504 142.504C181.226 139.959 181.37 135.688 178.823 132.965L175.902 135.698ZM172.017 135.568C173.125 134.531 174.864 134.588 175.902 135.698L178.823 132.965C176.277 130.244 172.007 130.099 169.284 132.647L172.017 135.568ZM127.989 155.387C144.77 153.441 160.409 146.422 172.017 135.568L169.285 132.646C158.347 142.874 143.521 149.559 127.529 151.413L127.989 155.387ZM125.576 158.433C125.401 156.925 126.481 155.562 127.99 155.387L127.528 151.413C123.826 151.843 121.173 155.191 121.602 158.894L125.576 158.433ZM128.301 160.866C126.927 160.866 125.739 159.833 125.576 158.432L121.603 158.895C122.003 162.333 124.919 164.866 128.301 164.866V160.866ZM182.083 129.023C183.17 129.679 184.374 129.993 185.563 129.993V125.993C185.082 125.993 184.595 125.867 184.148 125.598L182.083 129.023ZM179.789 119.76C177.864 122.952 178.891 127.099 182.083 129.023L184.148 125.598C182.849 124.814 182.43 123.126 183.214 121.825L179.789 119.76ZM184.154 110.75C183 113.836 181.532 116.868 179.789 119.76L183.214 121.825C185.082 118.727 186.659 115.473 187.901 112.151L184.154 110.75ZM192.839 106.793C189.349 105.489 185.46 107.26 184.154 110.75L187.901 112.152C188.432 110.731 190.017 110.009 191.438 110.54L192.839 106.793ZM196.796 115.478C198.102 111.987 196.33 108.098 192.839 106.793L191.438 110.54C192.86 111.071 193.582 112.655 193.05 114.077L196.796 115.478ZM191.347 126.728C193.517 123.129 195.35 119.345 196.796 115.478L193.05 114.077C191.691 117.709 189.966 121.271 187.922 124.663L191.347 126.728ZM185.563 129.993C187.844 129.993 190.078 128.832 191.347 126.728L187.922 124.662C187.407 125.517 186.5 125.993 185.563 125.993V129.993Z" fill="#5A5A5A" mask="url(#path-1-outside-1_36_66)"/>
</svg>
