<svg width="400" height="247" viewBox="0 0 400 247" fill="none" xmlns="http://www.w3.org/2000/svg">
<path d="M291.613 184.066L278.324 193.453C275.758 195.281 272.383 195.492 269.57 194.051C266.758 192.609 265 189.727 265 186.562V161.25H253.75C235.117 161.25 220 146.133 220 127.5V48.75C220 30.1172 235.117 15 253.75 15H366.25C384.883 15 400 30.1172 400 48.75V127.5C400 146.133 384.883 161.25 366.25 161.25H323.922L291.613 184.066ZM314.219 147.469C317.066 145.465 320.477 144.375 323.957 144.375H366.25C375.566 144.375 383.125 136.816 383.125 127.5V48.75C383.125 39.4336 375.566 31.875 366.25 31.875H253.75C244.434 31.875 236.875 39.4336 236.875 48.75V127.5C236.875 136.816 244.434 144.375 253.75 144.375H273.438C277.094 144.375 280.223 146.695 281.383 149.965C281.699 150.844 281.875 151.793 281.875 152.812V170.285C293.371 162.164 304.129 154.57 314.184 147.469H314.219Z" fill="#5A5A5A"/>
<path d="M325.137 62.1968C328.066 59.2678 332.815 59.2678 335.744 62.1968C338.673 65.1257 338.673 69.8743 335.744 72.8032L321.077 87.4692L321.136 87.5288L321.077 87.5874L335.744 102.255C338.672 105.184 338.672 109.933 335.744 112.862C332.815 115.791 328.066 115.791 325.137 112.862L310.47 98.1948L295.803 112.862C292.874 115.791 288.126 115.791 285.197 112.862C282.268 109.933 282.268 105.184 285.197 102.255L299.864 87.5884L299.804 87.5288L299.863 87.4692L285.197 72.8032C282.268 69.8744 282.268 65.1257 285.197 62.1968C288.126 59.2678 292.874 59.2678 295.803 62.1968L310.47 76.8628L325.137 62.1968Z" fill="#FFCC00"/>
<rect x="18" y="91" width="149" height="130" fill="#FFCC00"/>
<path d="M150.023 15.4375H154.167C171.173 15.4375 185 29.283 185 46.3125V216.125C185 233.154 171.173 247 154.167 247H30.8333C13.8268 247 0 233.154 0 216.125V46.3125C0 29.283 13.8268 15.4375 30.8333 15.4375H34.9766C40.276 6.22324 50.2487 0 61.6667 0H123.333C134.751 0 144.724 6.22324 150.023 15.4375ZM119.479 54.0312C125.887 54.0312 131.042 48.8693 131.042 42.4531C131.042 36.0369 125.887 30.875 119.479 30.875H65.5208C59.1133 30.875 53.9583 36.0369 53.9583 42.4531C53.9583 48.8693 59.1133 54.0312 65.5208 54.0312H119.479ZM61.6667 123.5C61.6667 114.961 54.7773 108.062 46.25 108.062C37.7227 108.062 30.8333 114.961 30.8333 123.5C30.8333 132.039 37.7227 138.938 46.25 138.938C54.7773 138.938 61.6667 132.039 61.6667 123.5ZM77.0833 123.5C77.0833 129.916 82.2383 135.078 88.6458 135.078H142.604C149.012 135.078 154.167 129.916 154.167 123.5C154.167 117.084 149.012 111.922 142.604 111.922H88.6458C82.2383 111.922 77.0833 117.084 77.0833 123.5ZM77.0833 185.25C77.0833 191.666 82.2383 196.828 88.6458 196.828H142.604C149.012 196.828 154.167 191.666 154.167 185.25C154.167 178.834 149.012 173.672 142.604 173.672H88.6458C82.2383 173.672 77.0833 178.834 77.0833 185.25ZM46.25 200.688C54.7773 200.688 61.6667 193.789 61.6667 185.25C61.6667 176.711 54.7773 169.812 46.25 169.812C37.7227 169.812 30.8333 176.711 30.8333 185.25C30.8333 193.789 37.7227 200.688 46.25 200.688Z" fill="#5A5A5A"/>
</svg>
