<svg width="330" height="330" viewBox="0 0 330 330" fill="none" xmlns="http://www.w3.org/2000/svg">
<g clip-path="url(#clip0_36_72)">
<path d="M287.63 308.577V85.159C287.63 79.4016 282.965 74.7365 277.207 74.7365H270.11V18.4226C270.11 12.6651 265.445 8 259.688 8H71.3154C65.5579 8 60.8928 12.6651 60.8928 18.4226V74.7365H53.7929C48.0355 74.7365 43.3704 79.4016 43.3704 85.159V308.577C43.3704 314.335 48.0355 319 53.7929 319H277.207C282.965 319 287.63 314.335 287.63 308.577ZM81.738 28.8452H249.265V74.7365H81.738V28.8452ZM266.785 298.155H64.2155V95.5816H71.3154H259.688H266.785V298.155Z" fill="black"/>
<path d="M236.142 118.46H94.8606C89.1045 118.46 84.438 123.126 84.438 128.882C84.438 134.64 89.1045 139.305 94.8606 139.305H236.142C241.9 139.305 246.565 134.64 246.565 128.882C246.565 123.126 241.898 118.46 236.142 118.46Z" fill="black"/>
<path d="M236.142 158.517H94.8606C89.1045 158.517 84.438 163.182 84.438 168.94V264.854C84.438 270.611 89.1045 275.277 94.8606 275.277H236.142C241.9 275.277 246.565 270.611 246.565 264.854V168.94C246.565 163.182 241.898 158.517 236.142 158.517ZM225.719 254.431H105.283V179.362H225.718L225.719 254.431Z" fill="black"/>
<path d="M211.67 41.2605C205.855 41.2605 201.125 45.9965 201.125 51.822C201.125 57.6142 205.855 62.3266 211.67 62.3266C217.495 62.3266 222.237 57.6142 222.237 51.822C222.237 45.9965 217.497 41.2605 211.67 41.2605Z" fill="black"/>
<path d="M165.488 41.2605C159.674 41.2605 154.943 45.9965 154.943 51.822C154.943 57.6142 159.674 62.3266 165.488 62.3266C171.305 62.3266 176.036 57.6142 176.036 51.822C176.036 45.9965 171.304 41.2605 165.488 41.2605Z" fill="black"/>
<path d="M119.308 41.2605C113.495 41.2605 108.766 45.9965 108.766 51.822C108.766 57.6142 113.495 62.3266 119.308 62.3266C125.131 62.3266 129.87 57.6142 129.87 51.822C129.87 45.9965 125.132 41.2605 119.308 41.2605Z" fill="black"/>
</g>
<path fill-rule="evenodd" clip-rule="evenodd" d="M2.99998 3.85789C6.90522 -0.0473557 13.2369 -0.0473557 17.1421 3.85789L326.142 312.858C330.047 316.763 330.047 323.095 326.142 327C322.237 330.905 315.905 330.905 312 327L2.99998 18C-0.905266 14.0948 -0.905266 7.76313 2.99998 3.85789Z" fill="black"/>
<defs>
<clipPath id="clip0_36_72">
<rect width="311" height="311" fill="white" transform="translate(10 8)"/>
</clipPath>
</defs>
</svg>
