<svg width="200" height="200" viewBox="0 0 200 200" fill="none" xmlns="http://www.w3.org/2000/svg">
<path d="M190.5 100C190.5 149.982 149.982 190.5 100 190.5C50.0182 190.5 9.5 149.982 9.5 100C9.5 50.0182 50.0182 9.5 100 9.5C149.982 9.5 190.5 50.0182 190.5 100Z" stroke="#EB4A37" stroke-width="19"/>
<path d="M144.291 81.3174L94.129 132.198C90.4452 135.934 84.4885 135.934 80.8439 132.198L55.7628 106.758C52.0791 103.021 52.0791 96.979 55.7628 93.2822C59.4466 89.5855 65.4034 89.5457 69.0479 93.2822L87.4668 111.965L130.967 67.8024C134.651 64.0659 140.607 64.0659 144.252 67.8024C147.896 71.5389 147.936 77.5809 144.252 81.2777L144.291 81.3174Z" fill="#EB4A37"/>
</svg>
