<svg width="365" height="332" viewBox="0 0 365 332" fill="none" xmlns="http://www.w3.org/2000/svg">
<path d="M289.464 67.25C289.464 56.1026 285.043 45.4118 277.173 37.5294C269.303 29.647 258.63 25.2188 247.5 25.2188C236.37 25.2188 225.697 29.647 217.827 37.5294C209.957 45.4118 205.536 56.1026 205.536 67.25C205.536 78.3974 209.957 89.0882 217.827 96.9706C225.697 104.853 236.37 109.281 247.5 109.281C258.63 109.281 269.303 104.853 277.173 96.9706C285.043 89.0882 289.464 78.3974 289.464 67.25ZM180.357 67.25C180.357 49.4142 187.431 32.3089 200.023 19.6971C212.615 7.08525 229.693 0 247.5 0C265.307 0 282.385 7.08525 294.977 19.6971C307.569 32.3089 314.643 49.4142 314.643 67.25C314.643 85.0858 307.569 102.191 294.977 114.803C282.385 127.415 265.307 134.5 247.5 134.5C229.693 134.5 212.615 127.415 200.023 114.803C187.431 102.191 180.357 85.0858 180.357 67.25ZM155.86 243.781H339.192C334.523 210.524 305.988 184.938 271.525 184.938H223.58C189.117 184.938 160.581 210.524 155.913 243.781H155.86ZM130 253.396C130 201.645 171.859 159.719 223.528 159.719H271.472C323.141 159.719 365 201.645 365 253.396C365 262.012 358.023 269 349.421 269H145.579C136.977 269 130 262.012 130 253.396Z" fill="#5A5A5A"/>
<path d="M121.384 197.5C70.6023 197.5 26.5 233.796 26.5 282.006C26.5 297.06 39.8757 306.5 52.723 306.5H232.277C245.124 306.5 258.5 297.06 258.5 282.006C258.5 233.796 214.398 197.5 163.616 197.5H121.384Z" fill="white" stroke="white" stroke-width="25"/>
<path d="M67.2727 269.281C75.8343 249.368 95.6122 235.438 118.58 235.438H166.525C189.493 235.438 209.271 249.368 217.832 269.281H67.2727ZM163.327 84.3612C168.855 89.8979 171.964 97.4114 171.964 105.25C171.964 113.089 168.855 120.602 163.327 126.139C157.8 131.675 150.308 134.781 142.5 134.781C134.692 134.781 127.2 131.675 121.673 126.139C116.145 120.602 113.036 113.089 113.036 105.25C113.036 97.4114 116.145 89.8979 121.673 84.3612C127.2 78.8252 134.692 75.7188 142.5 75.7188C150.308 75.7188 157.8 78.8252 163.327 84.3612ZM86.177 48.8653C71.2432 63.8228 62.8571 84.1054 62.8571 105.25C62.8571 126.395 71.2432 146.677 86.177 161.635C101.111 176.593 121.371 185 142.5 185C163.629 185 183.889 176.593 198.823 161.635C213.757 146.677 222.143 126.395 222.143 105.25C222.143 84.1054 213.757 63.8228 198.823 48.8653C183.889 33.9071 163.629 25.5 142.5 25.5C121.371 25.5 101.111 33.9071 86.177 48.8653ZM118.528 185.219C59.937 185.219 12.5 232.76 12.5 291.396C12.5 306.897 25.0542 319.5 40.5792 319.5H244.421C259.946 319.5 272.5 306.897 272.5 291.396C272.5 232.76 225.063 185.219 166.472 185.219H118.528Z" fill="#5A5A5A" stroke="white" stroke-width="25"/>
</svg>
